<?xml version="1.0" encoding="utf-8"?>
<!-- Generator: Adobe Illustrator 25.2.0, SVG Export Plug-In . SVG Version: 6.00 Build 0)  -->
<svg version="1.1" id="Layer_1" xmlns="http://www.w3.org/2000/svg" xmlns:xlink="http://www.w3.org/1999/xlink" x="0px" y="0px"
	 viewBox="0 0 250 150" style="enable-background:new 0 0 250 150;" xml:space="preserve">
<style type="text/css">
	.st0{fill:#ABD3D2;}
	.st1{fill:#448C8C;}
	.st2{fill:#79AEAD;}
</style>
<g>
	<circle class="st0" cx="120" cy="72.3" r="60"/>
	<path class="st1" d="M121.5,25.8c13.9,0.2,23.9,4.1,29.5,12.9c5.7,9.1,4.4,18.1-2.9,26.5c-1,1.2-2.3,2.3-3.7,3.3
		c-6,4.7-8.9,10.3-9,16.7c-0.1,2.3-0.1,4.6-1.5,6.9c-0.8,1.3,0.8,3.3,0.4,5c-0.3,1.3-0.2,2.5-1,3.8c-0.8,1.3-0.1,3.2,0.3,4.8
		c0.3,1,0.6,2-0.2,2.9c-0.6,0.7-0.6,1.4-0.1,2.1c1.4,1.8,0.1,2.9-1.9,3.6c-2.1,0.7-3.8,1.7-5.1,3.2c-3.8,4.2-11.5,4.3-14.4-0.1
		c-0.8-1.2-2.4-1.9-4-2.6c-1.9-0.8-2.5-2-2.3-3.8c0.2-2.3,0-4.7,0-7c0-3.4-1.5-6.9,0.2-10.3c0.2-0.4,0.4-0.8,0-1.1
		c-2.8-2.4-2.4-5.4-2.5-8.2c-0.2-5.6-2.3-10.5-7.5-14.8c-5-4.2-9.1-8.8-10.1-14.6c-2.7-14.8,9.1-26.7,28.5-28.8
		C117.1,26.1,119.9,25.7,121.5,25.8z M119.7,93.4c0,0,0,0.1,0,0.1c1,0,2,0,3,0c8.9-0.1,10.2-0.5,11-7.3c1-8.4,4.6-15.6,11.6-22.4
		c10-9.6,8.5-22-1.9-29.8c-7.1-5.4-15.8-7.5-25.7-7c-12,0.6-21.4,4.7-27.1,12.9c-5.6,8.2-4.6,16.4,2,24.1c2,2.4,4.5,4.6,6.9,6.9
		c3,2.7,4.5,5.7,4.5,9.3c0.1,2.8,0.7,5.6,1.2,8.3c0.6,3.3,2.3,4.6,6.7,5C114.6,93.6,117.2,93.4,119.7,93.4z M115.1,108.4
		c3.5-0.8,7-1.5,10.4-2.3c1.8-0.4,3.6-1,4.8-2.2c0.6-0.6,0.8-1.2,0.2-1.9c-0.5-0.6-1.3-0.6-2.1-0.4c-1.1,0.2-2.1,0.6-3.1,0.8
		c-3.6,0.9-7.2,1.7-11,1.4c5.3-1.1,10.9-1.6,16.7-4c-2.3-0.1-3.7-0.1-3.6-1.6c0.1-1.6-0.7-3.5,2.9-3.9c-6.9,0.4-13.4,0.1-19.9,0
		c-2.4,0-3.8,0.2-3.7,2.4c0.1,2,0.2,3.7,3.9,3.6c3.9-0.1,7.8,0,11.9,0c-0.9,1-2.1,0.9-3.1,1c-3.5,0.4-7.1,0.8-10.6,1.1
		c-1.6,0.1-2.4,0.2-1.6,1.9c0.9,2,2.5,2.3,4.8,2c3.4-0.4,6.8-0.7,10.1-1c-3.8,1.7-7.8,2.2-11.8,2.7c-1,0.1-2.8-0.4-2.7,1.2
		c0.1,1.5,1.7,1.4,3,1.3c3.4-0.1,6.9-0.4,10.3-0.5c0,0.1,0.1,0.3,0.1,0.4c-2,0.3-4,0.7-6,1c4.7,0.1,9.1-0.8,13.4-2
		c1.3-0.4,3-0.9,2.3-2.3c-0.8-1.5-2.4-0.7-3.7-0.4C123,107.8,119.2,108.7,115.1,108.4z M107.6,112.8c3.6,3.2,18.3,2.4,21.9,0.4
		c1-0.6,1.9-1.3,1.1-2.4c-0.8-1-1.9-0.6-3-0.3c-4.8,1.2-9.6,2.2-14.7,2.3C111.3,112.8,109.6,112.8,107.6,112.8z M112.2,116.1
		c1.7,1.3,2.3,3.9,6,2.4C115,119.2,116,114.7,112.2,116.1z"/>
	<path class="st0" d="M119.7,93.4c-2.6,0-5.2,0.2-7.7,0c-4.4-0.4-6-1.7-6.7-5c-0.5-2.8-1.2-5.5-1.2-8.3c-0.1-3.6-1.6-6.6-4.5-9.3
		c-2.4-2.2-4.8-4.5-6.9-6.9c-6.5-7.7-7.6-15.8-2-24.1c5.6-8.2,15.1-12.3,27.1-12.9c9.8-0.5,18.5,1.6,25.7,7
		c10.4,7.9,11.9,20.3,1.9,29.8c-7,6.8-10.6,14-11.6,22.4c-0.8,6.8-2,7.3-11,7.3c-1,0-2,0-3,0C119.7,93.5,119.7,93.5,119.7,93.4z
		 M98,60.3l-0.1-0.1c2.2,4.2,6.2,7.4,11,10c6.8,3.7,9.8,8.6,10,14.7c0,1.8,0,3.5-0.5,5.3c-0.2,0.7-0.2,1.4,0.6,1.9
		c0.5,0.3,1,0.3,1.5,0c1-0.5,1-1.2,0.8-2c-0.6-2-1.1-4-0.7-6c0.8-4.2,4.2-7.2,7.9-10.1c3.6-2.8,7.4-5.4,10.4-8.6
		c4.3-4.7,6.8-9.7,6.1-15.5c-0.1-1-0.1-2-1.3-2.7c-1.3,1-1,2.1-1.4,3.2c-0.2,0.5-0.6,1.3-0.6,1.3c-4.1-0.9-1.3,2.2-2.6,2.6
		c-2.2,0.7-2.4,2.1-3,3.4c0,0.1-0.2,0.1-0.3,0.1c-2.6-0.9-1.7,0.9-2.2,1.6c-0.4,0.7-0.5,1.4-0.8,2.2c-1.1-0.2-0.3-1.6-1.5-1.5
		c-1,0.1-1.2,1-1.5,1.6c-1.8,3.2-3.4,6.4-3.7,10c-0.3,2.8-1.4,5.2-5.7,6.7c1-3.5,2.1-6.8,0.9-9.9c-1.9-5.1,0.4-9.2,3.7-13.4
		c4.4-5.6,5.7-11.7,3.9-18.1c-0.3-1.1-0.5-2.3-2.4-2.7c-0.6,1.1-0.2,2,0,2.9c0.1,0.4,0.1,0.8-0.6,1c-1.6,0.5-1.5,0.5-1.3,1.5
		c0.2,0.8,1.4,1.6,0.3,2.5c-1.3,0.1-0.4-1.6-2-1.2c-0.4,1.4,1.3,2.7,0.4,4.2c-0.9,0.2-0.8-1.2-1.7-0.7c-0.7,0.3-0.3,0.9-0.2,1.4
		c0.2,1.1,1.3,2.1,0.6,3.3c-1.4,0-0.8-1.5-2.7-1.3c-0.9,4.4,3.8,9.1-0.5,13.8c-1.7-3.6-1-7.5-3.3-10.7c-1.3-1.8-1.6-3.6-1.6-5.6
		c0-0.1-0.3-0.3-0.4-0.3c-3.3,0.2-1.6-1.5-1.6-2.5c0-0.6,0.4-1.3-0.6-1.5c-1.5-0.4-1.5-0.4-1.3-1.5c0.1-0.6,0.6-1.3-0.4-1.5
		c-1-0.2-1.2,0.6-1.4,1.2c-0.3,0.6-0.5,1.3-0.7,2c-2,6.9,0.6,13,5.9,18.7c1.7,1.9,3.6,3.7,5,5.7c2.4,3.5,2.6,7.1,0.7,10.9
		c-1.1-4.6-1.9-9.3-5.7-13.1c-1.5-0.2-0.5,1.4-1.7,1.2c-0.9-0.2-1.1-1-1.4-1.6c-0.4-0.9-0.6-1.8-0.9-2.5c-1.3-0.6-1.2,1-2.3,0.6
		c-1.4-0.6-0.8-1.7-1.1-2.5c-0.5-1.5-2.4,1.5-2.3-0.4c0.1-2-4.1-1.7-3.1-3.9c-0.2,0-0.5-0.2-0.6-0.1c-2.3,1.3-1.4-0.2-1.4-0.9
		c0-0.7-0.6-1.7-1.3-1.1c-2.5,2.3-1.6-0.3-2-0.7c-0.4-0.5-0.6-1.1-0.8-1.6C94,53.4,94.6,57.1,98,60.3z M144.7,38.8
		c3.5,5.2,3.6,10.7,1.8,16.2c-1.4,4.2-4.3,7.8-7.3,11.3c-1.6,1.8-3.5,3.6-3.8,5.9c2.6-3.8,6.2-7,9.2-10.6c1.9-2.3,3.1-4.9,3.7-7.6
		C149.5,48.8,149,43.5,144.7,38.8z M107.7,88.9c-1-4.6-0.8-9.1-1.4-13.6c-0.3-1.8-1.1-3.5-2.6-4.9c-2.4-2.3-4.8-4.5-7.2-6.7
		c-0.4,0.1-0.9,0.3-1.3,0.4C106,70.6,105.3,80.1,107.7,88.9z M132.6,77.1c-1.2,1.2-1.2,2.7-1.7,4c-1.6,4.1,0.1,9.4-7.9,11
		c5,0,7.2-1.4,8.1-4.8C132,83.9,131.3,80.5,132.6,77.1z M102.5,33.5c4.8-2,9.8-3.4,15.2-3.5c0.7,0,1.5-0.2,1.5-0.7
		c0-0.8-0.9-1-1.7-0.9C111.8,28.8,106.8,30.6,102.5,33.5z M91,51c0.1-4.9,2.5-9.2,6.9-12.7c0.4-0.3,0.7-0.6,1-1
		c0.5-0.5,0.7-1.1-0.1-1.6c-0.7-0.4-1.3,0.1-1.6,0.5C93.2,40.8,89.9,45.4,91,51z"/>
	<path class="st2" d="M115.1,108.4c4.1,0.3,7.9-0.7,11.6-1.6c1.3-0.3,3-1.1,3.7,0.4c0.7,1.4-1,1.9-2.3,2.3c-4.3,1.2-8.6,2.2-13.4,2
		c2-0.3,4-0.7,6-1c0-0.1-0.1-0.3-0.1-0.4c-3.4,0.2-6.9,0.4-10.3,0.5c-1.3,0.1-2.9,0.2-3-1.3c-0.1-1.6,1.7-1.1,2.7-1.2
		c4.1-0.5,8.1-1,11.8-2.7c-3.4,0.3-6.8,0.6-10.1,1c-2.3,0.3-3.9,0-4.8-2c-0.8-1.6,0.1-1.7,1.6-1.9c3.5-0.3,7.1-0.7,10.6-1.1
		c1-0.1,2.2-0.1,3.1-1c-4.1,0-8-0.1-11.9,0c-3.6,0.1-3.7-1.6-3.9-3.6c-0.2-2.2,1.3-2.5,3.7-2.4c6.5,0.1,13.1,0.4,19.9,0
		c-3.6,0.4-2.8,2.3-2.9,3.9c-0.1,1.5,1.3,1.5,3.6,1.6c-5.8,2.4-11.4,2.8-16.7,4c3.9,0.4,7.4-0.5,11-1.4c1.1-0.3,2.1-0.6,3.1-0.8
		c0.8-0.2,1.6-0.1,2.1,0.4c0.6,0.7,0.3,1.3-0.2,1.9c-1.2,1.2-3,1.8-4.8,2.2C122.1,107,118.6,107.7,115.1,108.4z M119.5,97.4
		c-0.1-0.7,0.4-1.5-1.3-1.5c-2,0-1.3,1-1.3,1.6c0,0.7-0.4,1.9,1.3,1.9C120.3,99.4,119.1,98,119.5,97.4z M123.5,96
		c-0.6,1.1-0.7,2.3-0.1,4C124.5,98.3,124.3,97.1,123.5,96z"/>
	<path class="st2" d="M107.6,112.8c2.1,0,3.7,0,5.3,0c5.1,0,9.9-1,14.7-2.3c1.1-0.3,2.2-0.7,3,0.3c0.8,1,0,1.8-1.1,2.4
		C125.9,115.2,111.2,116,107.6,112.8z"/>
	<path class="st2" d="M112.2,116.1c3.8-1.4,2.9,3.2,6,2.4C114.5,120,113.8,117.4,112.2,116.1z"/>
	<path class="st1" d="M98,60.3c-3.3-3.2-3.9-6.9-3.6-10.9c0.3,0.6,0.4,1.2,0.8,1.6c0.4,0.4-0.5,3,2,0.7c0.7-0.6,1.3,0.4,1.3,1.1
		c0,0.7-1,2.2,1.4,0.9c0.1-0.1,0.4,0.1,0.6,0.1c-1,2.2,3.2,2,3.1,3.9c-0.1,1.9,1.8-1.1,2.3,0.4c0.3,0.8-0.3,2,1.1,2.5
		c1.1,0.4,1-1.2,2.3-0.6c0.3,0.8,0.6,1.6,0.9,2.5c0.3,0.6,0.5,1.5,1.4,1.6c1.1,0.2,0.2-1.4,1.7-1.2c3.8,3.8,4.6,8.5,5.7,13.1
		c1.9-3.8,1.7-7.5-0.7-10.9c-1.4-2-3.3-3.8-5-5.7c-5.3-5.6-7.9-11.7-5.9-18.7c0.2-0.7,0.4-1.3,0.7-2c0.2-0.5,0.4-1.3,1.4-1.2
		c1,0.2,0.5,1,0.4,1.5c-0.2,1.1-0.2,1.1,1.3,1.5c1,0.3,0.6,1,0.6,1.5c0,1-1.7,2.7,1.6,2.5c0.1,0,0.4,0.2,0.4,0.3
		c0,1.9,0.3,3.7,1.6,5.6c2.3,3.2,1.6,7.1,3.3,10.7c4.3-4.7-0.3-9.4,0.5-13.8c1.9-0.2,1.2,1.3,2.7,1.3c0.7-1.2-0.4-2.2-0.6-3.3
		c-0.1-0.5-0.4-1.1,0.2-1.4c1-0.5,0.9,0.9,1.7,0.7c0.8-1.4-0.8-2.8-0.4-4.2c1.5-0.3,0.7,1.3,2,1.2c1.1-0.9,0-1.7-0.3-2.5
		c-0.3-1-0.3-1,1.3-1.5c0.7-0.2,0.7-0.5,0.6-1c-0.2-0.9-0.6-1.8,0-2.9c1.9,0.4,2,1.6,2.4,2.7c1.8,6.4,0.5,12.5-3.9,18.1
		c-3.3,4.2-5.6,8.3-3.7,13.4c1.2,3.1,0.1,6.4-0.9,9.9c4.2-1.4,5.4-3.9,5.7-6.7c0.3-3.5,1.8-6.8,3.7-10c0.3-0.6,0.6-1.5,1.5-1.6
		c1.2-0.1,0.4,1.2,1.5,1.5c0.3-0.7,0.4-1.5,0.8-2.2c0.4-0.7-0.4-2.5,2.2-1.6c0.1,0,0.3,0,0.3-0.1c0.6-1.3,0.8-2.7,3-3.4
		c1.3-0.4-1.5-3.5,2.6-2.6c0,0,0.5-0.9,0.6-1.3c0.3-1,0.1-2.2,1.4-3.2c1.2,0.7,1.2,1.8,1.3,2.7c0.6,5.8-1.9,10.8-6.1,15.5
		c-2.9,3.2-6.7,5.9-10.4,8.6c-3.7,2.8-7.1,5.8-7.9,10.1c-0.4,2.1,0,4,0.7,6c0.3,0.8,0.2,1.5-0.8,2c-0.5,0.3-1,0.3-1.5,0
		c-0.8-0.5-0.8-1.2-0.6-1.9c0.5-1.8,0.6-3.5,0.5-5.3c-0.2-6.1-3.1-11.1-10-14.7c-4.7-2.5-8.8-5.7-11-10c1.3,0.3,1.2,1.7,2.6,2
		c0.6-0.6-1.1-1.8,1-1.9c0.2,1.6,1.2,3,2.3,4.8c0.8-1.4-0.9-2.2,0.1-3.3c1.4,2,1.8,4.2,3.5,6.2c0.8-1.5-1.3-2.6-0.3-4.1
		c1.8,2.3,2.1,5,5.1,7.1c-0.4-1.7-1.8-2.5-1.6-4.1c2.6,1.4,2.4,4.1,5,5.1c1.1-4.8-5.8-5.7-7.2-9.2c0-0.1-0.4-0.2-0.6-0.1
		c-2.1,0.8-2.6-0.5-3-1.5c-0.7-1.6-1.8-1.6-3.3-0.7c-0.2-0.7-0.3-1.5-0.6-2.2c-0.1-0.4-0.6-1.2-1.2-0.3c-1,1.5-1.2,0.4-1.7-0.2
		c-0.5-0.6-0.1-1.5-1.2-2.1C96.2,57.4,98,58.7,98,60.3z M142,59c1.1-2.7,1.9-5.3,1.8-8.3c-1.9,1,0.7,4-3.5,3.9
		c-0.8,0-0.8,2.4-1.1,3.8c0,0.2-0.2,0.4-0.4,0.7c-0.3-0.6-0.5-1.1-0.8-1.7c-1.4,1.3-0.9,2.7-1.6,3.9c-0.2,0.4-0.5,1.5-1.3,0.4
		c-0.9-1.3-1-0.7-1.4,0.1c-0.6,1.1-0.1,2.6-1.8,3.6c-0.3-0.7-0.6-1.2-1.1-2.1c-2,3-3.4,5.9-3,9c1.9-1.6,1.2-3.9,3.1-5.7
		c0.8,1.4-0.4,2.6,0.3,4c1-2.3,2-4.7,3.2-7.3c1.3,1.7-0.6,2.9,0,4.5c2.6-2.1,1.8-4.9,3.3-7.2c1.6,0.8,0.2,1.9,1.2,2.9
		c0.6-2.1,1.2-4,1.7-5.9C141.5,58,140.8,58.8,142,59z M124.6,52.3c1.1-1.4,0.8-2.9,1.1-4.2c1,0-0.1,1.3,1.3,1.1
		c-0.3-2.4,1.8-4.9-0.2-6.9C124.8,45.2,123.2,48.5,124.6,52.3z M111.1,53.2c0.8-2.8,0.5-5.5-0.7-8.1
		C109.6,47.9,109.8,50.6,111.1,53.2z M108.7,43.5c-1.6,2-0.6,4,0,6C108.7,47.5,108.7,45.5,108.7,43.5z M128.6,43.6
		c-0.1-1.6,0.2-3.3-1.2-4.7C127.7,40.4,127.1,42.1,128.6,43.6z M116,55c-0.3,0-0.6,0-0.9,0c-0.3,1.6-0.1,3.2,1.2,4.7
		C116.2,58.2,116.1,56.6,116,55z"/>
	<path class="st1" d="M144.7,38.8c4.3,4.7,4.8,9.9,3.6,15.3c-0.6,2.7-1.8,5.2-3.7,7.6c-2.9,3.6-6.6,6.8-9.2,10.6
		c0.3-2.4,2.2-4.1,3.8-5.9c3.1-3.5,6-7.1,7.3-11.3C148.3,49.5,148.1,44.1,144.7,38.8z"/>
	<path class="st1" d="M107.7,88.9c-2.3-8.8-1.7-18.3-12.5-24.8c0.4-0.1,0.9-0.3,1.3-0.4c2.4,2.2,4.9,4.4,7.2,6.7
		c1.5,1.4,2.3,3.1,2.6,4.9C106.9,79.8,106.7,84.3,107.7,88.9z"/>
	<path class="st1" d="M132.6,77.1c-1.3,3.3-0.6,6.8-1.5,10.1c-0.9,3.4-3.1,4.8-8.1,4.8c8-1.5,6.3-6.9,7.9-11
		C131.4,79.8,131.4,78.3,132.6,77.1z"/>
	<path class="st1" d="M102.5,33.5c4.3-2.9,9.3-4.6,15-5.2c0.8-0.1,1.7,0.1,1.7,0.9c0,0.6-0.7,0.7-1.5,0.7
		C112.2,30.1,107.3,31.5,102.5,33.5z"/>
	<path class="st1" d="M91,51c-1-5.7,2.3-10.3,6.2-14.7c0.4-0.4,0.9-0.9,1.6-0.5c0.8,0.4,0.6,1,0.1,1.6c-0.3,0.3-0.7,0.7-1,1
		C93.5,41.9,91,46.1,91,51z"/>
	<path class="st1" d="M119.5,97.4c-0.4,0.6,0.8,2-1.3,2c-1.7,0-1.3-1.2-1.3-1.9c0-0.6-0.7-1.6,1.3-1.6
		C119.9,95.9,119.4,96.7,119.5,97.4z"/>
	<path class="st1" d="M123.5,96c0.8,1.2,1,2.3-0.1,4C122.9,98.3,123,97.1,123.5,96z"/>
	<path class="st0" d="M142,59c-1.2-0.2-0.5-1-1.6-1.3c-0.6,1.9-1.1,3.8-1.7,5.9c-1-1,0.4-2.1-1.2-2.9c-1.4,2.2-0.7,5-3.3,7.2
		c-0.6-1.6,1.3-2.8,0-4.5c-1.2,2.7-2.2,5-3.2,7.3c-0.7-1.3,0.5-2.5-0.3-4c-1.9,1.7-1.1,4.1-3.1,5.7c-0.4-3.2,1-6,3-9
		c0.4,0.8,0.7,1.4,1.1,2.1c1.7-1.1,1.2-2.5,1.8-3.6c0.4-0.8,0.5-1.5,1.4-0.1c0.8,1.1,1.1,0,1.3-0.4c0.7-1.2,0.2-2.7,1.6-3.9
		c0.3,0.6,0.5,1.1,0.8,1.7c0.2-0.3,0.4-0.5,0.4-0.7c0.3-1.3,0.3-3.8,1.1-3.8c4.2,0.1,1.6-2.8,3.5-3.9C143.9,53.7,143,56.4,142,59z"
		/>
	<path class="st0" d="M101.4,60.4c1.6-0.9,2.6-0.8,3.3,0.7c0.4,1,0.9,2.3,3,1.5c0.1,0,0.5,0.1,0.6,0.1c1.5,3.5,8.3,4.4,7.2,9.2
		c-2.6-1-2.4-3.7-5-5.1c-0.2,1.6,1.2,2.4,1.6,4.1c-3-2.1-3.4-4.8-5.1-7.1c-1,1.6,1,2.6,0.3,4.1c-1.8-2-2.1-4.2-3.5-6.2
		c-1,1,0.7,1.9-0.1,3.3C102.6,63.4,101.7,62,101.4,60.4L101.4,60.4z"/>
	<path class="st0" d="M124.6,52.3c-1.3-3.8,0.2-7.1,2.2-10.1c2,2-0.1,4.5,0.2,6.9c-1.4,0.2-0.3-1-1.3-1.1
		C125.4,49.4,125.7,50.9,124.6,52.3z"/>
	<path class="st0" d="M101.5,60.3c-2.1,0.1-0.4,1.3-1,1.9c-1.4-0.3-1.3-1.7-2.6-2c0,0,0.1,0.1,0.1,0.1c0-1.6-1.8-2.9-1.2-4.7
		c1.1,0.6,0.6,1.5,1.2,2.1c0.5,0.6,0.7,1.7,1.7,0.2c0.6-0.9,1,0,1.2,0.3C101.1,58.9,101.2,59.7,101.5,60.3
		C101.4,60.4,101.5,60.3,101.5,60.3z"/>
	<path class="st0" d="M111.1,53.2c-1.3-2.6-1.5-5.3-0.7-8.1C111.6,47.8,111.9,50.5,111.1,53.2z"/>
	<path class="st0" d="M108.7,43.5c0,2,0,4,0,6C108.1,47.5,107.1,45.6,108.7,43.5z"/>
	<path class="st0" d="M128.6,43.6c-1.5-1.5-0.9-3.2-1.2-4.7C128.8,40.3,128.6,42,128.6,43.6z"/>
	<path class="st0" d="M116,55c0.1,1.6,0.2,3.2,0.3,4.8c-1.2-1.5-1.5-3.1-1.2-4.7C115.4,55,115.7,55,116,55z"/>
</g>
</svg>
