<?xml version="1.0" encoding="utf-8"?>
<!-- Generator: Adobe Illustrator 25.2.0, SVG Export Plug-In . SVG Version: 6.00 Build 0)  -->
<svg version="1.1" id="Layer_1" xmlns="http://www.w3.org/2000/svg" xmlns:xlink="http://www.w3.org/1999/xlink" x="0px" y="0px"
	 viewBox="0 0 250 150" style="enable-background:new 0 0 250 150;" xml:space="preserve">
<style type="text/css">
	.st0{fill:#ABD3D2;}
	.st1{fill:#448C8C;}
	.st2{fill:#FFFFFF;}
</style>
<g>
	<circle class="st0" cx="120" cy="72.3" r="60"/>
	<path class="st1" d="M114.9,116.8c-3.3-0.5-6.7-0.6-10-1.2c-5.3-1-10.4-2.2-15.1-4.9c-6.7-3.9-6.8-9.2-0.2-13.2
		c4.8-2.9,10.2-4.2,15.8-5c1.4-0.2,1.5-0.5,0.7-1.6c-4.2-5.7-8.3-11.4-12.4-17.2c-7.5-10.7-7.1-24,1.1-34.2
		c5.1-6.4,12-10.1,20.4-11.4c0.5-0.1,1.1,0,1.5-0.4c2.1,0,4.3,0,6.4,0c2.4,0.7,4.9,0.9,7.3,1.7c19.5,6.6,27.1,28.1,15.7,44.4
		c-4,5.7-8.1,11.4-12.3,17.1c-0.8,1.1-0.7,1.4,0.7,1.6c4.9,0.7,9.7,1.9,14.2,4.1c0.7,0.3,1.3,0.7,1.9,1.1c6.2,3.9,6.1,9.1-0.2,12.9
		c-5.3,3.2-11.3,4.4-17.4,5.3c-2.6,0.4-5.3,0.6-7.9,0.9C121.8,116.8,118.4,116.8,114.9,116.8z M92.4,58.3c-0.1,4.1,1.3,8.7,4.2,12.9
		c7.5,10.6,15.1,21,22.6,31.6c0.7,1,1,0.8,1.6-0.1c7.2-10.1,14.5-20.2,21.8-30.3c12-16.7,1.3-38.6-19.9-40.8
		C106.8,29.9,92.6,41.9,92.4,58.3z"/>
	<path class="st0" d="M92.4,58.3c0.1-16.3,14.3-28.4,30.4-26.7c21.1,2.2,31.8,24.2,19.9,40.8c-7.3,10.1-14.5,20.2-21.8,30.3
		c-0.6,0.8-0.9,1-1.6,0.1c-7.5-10.5-15.1-21-22.6-31.6C93.7,67,92.4,62.3,92.4,58.3z M144.3,57.4c0.1-5.3-1.7-10.1-5.2-14.2
		c-6.2-7-14.1-9.7-23.7-8.2c-1.2,0.2-2.2,0.7-2.1,2c0.1,1.2,1.1,1.7,2.8,1.5c1.2-0.1,2.4-0.4,3.7-0.3c8.7,0.1,15.1,3.8,18.9,11.2
		c3.5,6.9,2,15.2-3.6,20.8c-5.5,5.6-14.1,7.6-21.7,5c-13-4.3-17.7-18.8-9.6-29.4c1.1-1.5,1.2-2.5,0.1-3.3c-1-0.7-2-0.3-3.2,1.1
		c-4.4,5.5-5.7,11.7-4.2,18.4c2.6,11.6,14,19,26.8,17.8C135,78.7,144.3,68.8,144.3,57.4z M105.3,54.7c-0.1,3.3,1.3,5.5,3.1,7.4
		c3.1,3.3,6.9,5.8,10.4,8.7c0.9,0.7,1.9,0.6,2.8-0.1c3.2-2.6,6.6-5.1,9.6-7.9c1.7-1.6,3-3.4,3.5-5.6c0.7-3.5-0.3-6.5-3.4-8.7
		c-2.7-1.8-5.6-2-8.6-0.5c-2.3,1.2-2.9,1.2-5.1,0C112,44.9,105.4,48.8,105.3,54.7z M109.2,38.1c-1.5,0-2.3,0.7-2.2,1.8
		c0.1,1,0.8,1.8,2,1.7c1.1,0,1.7-0.7,1.7-1.6C110.7,39,110.2,38.2,109.2,38.1z"/>
	<path class="st1" d="M144.3,57.4c0,11.4-9.3,21.3-21.1,22.5c-12.8,1.3-24.2-6.2-26.8-17.8c-1.5-6.6-0.1-12.8,4.2-18.4
		c1.1-1.4,2.2-1.8,3.2-1.1c1.1,0.8,1,1.8-0.1,3.3c-8.1,10.6-3.4,25.1,9.6,29.4c7.6,2.6,16.2,0.6,21.7-5c5.6-5.6,7.1-14,3.6-20.8
		c-3.8-7.4-10.2-11.1-18.9-11.2c-1.2,0-2.4,0.2-3.7,0.3c-1.6,0.2-2.7-0.4-2.8-1.5c-0.1-1.3,0.9-1.8,2.1-2c9.6-1.5,17.5,1.2,23.7,8.2
		C142.6,47.3,144.4,52.1,144.3,57.4z"/>
	<path class="st1" d="M105.3,54.7c0.1-5.8,6.8-9.8,12.3-6.7c2.2,1.2,2.8,1.2,5.1,0c3-1.5,5.9-1.4,8.6,0.5c3.1,2.1,4.1,5.2,3.4,8.7
		c-0.5,2.2-1.8,4-3.5,5.6c-3,2.9-6.4,5.3-9.6,7.9c-0.9,0.7-1.8,0.9-2.8,0.1c-3.5-2.8-7.3-5.4-10.4-8.7
		C106.5,60.1,105.2,57.9,105.3,54.7z M109.2,55.2c0,2.1,1.2,3.6,2.6,5c2.3,2.3,5,4.2,7.5,6.3c0.6,0.5,1.1,0.4,1.6,0
		c2-1.6,4-3.2,5.9-4.8c1.5-1.2,2.9-2.5,3.7-4.3c1.1-2.4,0.2-5.4-2.1-6.4c-2.4-1.1-4.8,0-6.1,2.8c-0.1,0.3-0.2,0.6-0.4,0.8
		c-0.4,0.7-1,1.2-1.9,1.2c-0.9,0-1.5-0.5-1.9-1.2c-0.2-0.5-0.4-1-0.7-1.5c-1.2-2-3.1-2.8-5.2-2.3C110.4,51.3,109.2,53,109.2,55.2z"
		/>
	<path class="st1" d="M109.2,38.1c1,0,1.5,0.9,1.5,1.9c0,0.9-0.6,1.6-1.7,1.6c-1.2,0-1.9-0.7-2-1.7
		C106.9,38.8,107.7,38.2,109.2,38.1z"/>
	<path class="st2" d="M109.2,55.2c0-2.2,1.2-3.9,3.1-4.4c2.1-0.6,4,0.2,5.2,2.3c0.3,0.5,0.5,1,0.7,1.5c0.4,0.7,1,1.2,1.9,1.2
		c0.9,0,1.5-0.4,1.9-1.2c0.1-0.3,0.2-0.6,0.4-0.8c1.3-2.7,3.7-3.8,6.1-2.8c2.3,1,3.3,4,2.1,6.4c-0.8,1.7-2.2,3-3.7,4.3
		c-1.9,1.6-4,3.2-5.9,4.8c-0.6,0.5-1,0.6-1.6,0c-2.5-2.1-5.2-4-7.5-6.3C110.3,58.8,109.1,57.2,109.2,55.2z"/>
</g>
</svg>
