<?xml version="1.0" encoding="utf-8"?>
<!-- Generator: Adobe Illustrator 25.2.0, SVG Export Plug-In . SVG Version: 6.00 Build 0)  -->
<svg version="1.1" id="Layer_1" xmlns="http://www.w3.org/2000/svg" xmlns:xlink="http://www.w3.org/1999/xlink" x="0px" y="0px"
	 viewBox="0 0 250 150" style="enable-background:new 0 0 250 150;" xml:space="preserve">
<style type="text/css">
	.st0{fill:#ABD3D2;}
	.st1{fill:#448C8C;}
	.st2{fill:#79AEAD;}
	.st3{fill:#3A618F;}
	.st4{fill:#F7F0EF;}
	.st5{fill:#F8F5F5;}
	.st6{fill:#E6E8E7;}
	.st7{fill:#D2D6D5;}
	.st8{fill:#4FC798;}
	.st9{fill:#FEFEFE;}
</style>
<g>
	<path class="st0" d="M120,12.3c-33.1,0-60,26.9-60,60c0,32.9,26.5,59.6,59.4,60c0,0,0.1,0,0.2,0c-0.1,0-0.1,0-0.1,0
		c0-0.1,2.6-0.1,4.4-0.1c31.4-2,56.2-28,56.2-59.9C180,39.2,153.1,12.3,120,12.3z"/>
	<path class="st1" d="M168.9,67.5c-0.9,3.1-0.9,3.1-4.5,3.1c-4.7,0-9.3,0-14,0c-0.1,1.3,1.1,1.9,1.4,3c0.4,1.3,0,1.7-1.1,1.9
		c-0.3,1.5-0.4,2.8,1.1,4c0.5,0.4,0,1.8-1.1,2.2c-1.8,3.2-7.7,2.8-8.5-0.8c-0.7,0.1-0.9-0.8-1.6-0.8c-0.1,0.8-0.1,1.5-0.2,2.3
		c-0.6,1.3-1.4,1.5-2.6,0.7c-0.1,0-0.2,0.1-0.3,0c-0.7,0.1-0.9-0.3-0.9-0.9c0-2-0.1-4.1,0-6.1c0.1-1.7-0.4-2.5-2.3-2.2
		c-0.3,0.1-0.6,0-1,0c0,2.6-0.1,5.2-0.1,7.9c0,1-0.2,1.8-1.5,1.8c-1.2,0-1.5-0.7-1.5-1.7c0-2.1-0.1-4.2,0-6.3
		c0.1-1.4-0.2-2.4-1.9-2.2c-0.4,0-0.7-0.2-1.1-0.3c-0.8,0-1.1,1-1.9,0.8c-1-0.3-1.9-0.8-3-0.7c-0.5,0.1-1,0.2-1.2,0.8
		c-0.2,0.6,0.3,0.9,0.7,1.2c1.2,0.6,2.4,1.3,3.6,1.9c1.5,0.4,2.3,2.2,1.9,3.6c-0.9,3-3,4.1-5.9,4.1c-1,0-1.7,1-2.8,0.6
		c-0.3-1,1.4-0.4,1-1.2c-0.5-0.9-1.4-0.3-2.1-0.2c-0.4,0-0.9-0.1-1.1,0.1c-1.3,1.2-1.8,0.4-2.3-0.8c-0.4-0.8-1.3-1.3-1.3-2.3
		c-0.5,0-1,0-1.6,0c-0.1,0.5-0.4,0.6-0.9,0.6c-0.5,1.6-1.4,2.6-3.3,1.5c-0.1-0.1-0.4,0.2-0.6,0.3c-2.3,0.8-4.6,0.9-7,0
		c-0.1-0.1-0.2-0.2-0.3-0.3c-1-4-0.6-8.1-0.2-12.2c0-0.1,0.3-0.1,0.5-0.2c-1.2-0.7-2.2-0.1-3.2,0.6c1.5,1.3,2.2,3.4,1.5,5.3
		c-0.7,1.9-2.2,2.5-4.1,2.4C92,79,91.9,79.9,92,81.2c0,2.5,0,2.6-2.7,2.5c0.6,4.7,0.8,9.4,1.4,14.1c0.5,3.7,0.6,7.4,0.9,11.1
		c0.4,5.2,0.9,10.4,1.4,15.6c0.1,0.7,0.3,1.3-0.7,1.5c2.7,1.7,5.7,2.8,8.7,3.9c3.7,0.9,7.3,2.1,11.2,2.4c0,0,0,0,0,0
		c1.6,0,3.9,0,4.2,0c0.1,0,3.7,0,5.2,0.1c1.6-0.1,4.2,0,4.5,0c0,0,1.2,0,2.5,0c0.2-0.1,0.5-0.1,0.8-0.2c7.1-1.1,13.8-3.4,20-7.1
		c5.9-3.5,11.3-7.6,15.5-13.1c-0.3-4.9,0.8-9.6,1.1-14.5c0.1-2.5,0.2-5.1,0.6-7.6c0.8-5.9,1.3-11.9,1.7-17.9
		C168.4,70.5,169,69,168.9,67.5z M119.3,121.9c0.8,1.2-0.2,2.3-0.1,3.4c0,0.3-0.3,0.7-0.6,0.9c-0.8,0.7-4.6,0.5-5.6-0.3
		c-1.5-0.2-3,0-4.4-0.7c-1.3-0.6-2.3-1.4-2.5-2.9c-2.5-2.8-4.5-5.8-5.6-9.4c-0.4-1.3,0.8-2.6,1.5-3.6c1.1-1.5,0.7-2.4-0.9-3.1
		c-0.5-0.2-1.1-0.4-1.4-1.3c3.4,0.1,6.6-0.7,9.9-0.8c0.5,0,0.9,0.1,1.1,0.6c1.5,2.8,3,5.7,4.5,8.5c0.1,0.1,0,0.4-0.1,0.7
		c-0.9-0.5-2-0.6-2.2-1.8c0,0-0.1,0-0.2,0c-0.1,0-0.1,0.1-0.1,0.1c-0.4,0.5-1.7,0.7-1,1.7c0.5,0.7,0.4,2.3,2.2,1.7
		c1-0.3,2.3,0.1,3.3-0.5c0.5-0.3,1.1-0.2,1.4,0.4c0.7,1.4,1.9,2.6,0.9,4.4C119.1,120.6,119,121.5,119.3,121.9z M120.2,102.6
		c-0.2-0.5,0.3-0.6,0.6-0.7c0.5-0.2,0.9-0.5,1.3-0.8c1-0.6,1.2-1.3,0.4-2.2c-0.7-0.8-0.9-1.8-1.8-2.4c-1.6,2.1-2.7,4.4-4,6.6
		c-0.6,1-1.1,1.4-2.3,0.7c-2-1.3-4.1-2.3-6.1-3.5c-0.8-0.4-1.2-0.8-0.6-1.8c1.4-2.2,2.6-4.6,4.4-6.6c1.1-1.1,2.3-1.9,4-1.5
		c3.5-0.4,7.1-0.1,10.6-0.2c0.8,0,1.4,0.4,1.8,1c0.2,0.3,0.4,0.7,0.6,1c2.1,3.1,2.1,3.1,5.4,1.4c0.5,0.4,0.3,0.8,0.1,1.2
		c-1.2,2.5-2.5,5-3.7,7.6c-0.3,0.7-0.7,1-1.4,0.9c-2.9-0.2-5.8-0.3-8.6-0.5C120.8,103,120.3,102.8,120.2,102.6z M139.4,116.2
		c-0.9,2.9-2.6,5.4-4.2,7.9c-1,1.6-2.8,1.6-4.5,1.6c-1.5,0.1-3.1-0.3-2.9,2.1c0.1,0.9-0.7,1.1-1.4,0.3c-1.6-2.1-3.1-4.2-4.7-6.3
		c-0.3-0.4-0.3-0.9,0-1.3c1.9-2.7,3.5-5.5,5.7-8.1c0.2,0.4,0.3,0.6,0.4,0.8c0.2,3.5,0.2,3.5,3.8,3.3c0.3,0,0.6-0.1,1-0.1
		c-1.4-2.4-2.7-4.8-4.2-7.2c-0.6-0.9-0.3-1.4,0.5-1.8c2.2-1.2,4.3-2.4,6.4-3.7c0.7-0.4,1.3-0.5,1.7,0.4c1.1,2.1,2.3,4,3.3,6.1
		C141.5,112.5,141.4,114.5,139.4,116.2z"/>
	<path class="st2" d="M64,62.8c0.2-2.4,0.5-4.9,0.7-7.3c1.6,0,2.9-0.8,4.6-0.8c33.8,0.1,67.7,0.1,101.5,0c2.1,0,4,0,5.5,1.6
		c0.2,2.3,0,4.6,0.5,6.9c-0.4,1.6-1.7,2.2-3.2,2.3c-1.4,0.1-2.9,0-4.3,0.1c-32.7,0-65.3,0-98,0c-0.8,0-1.6-0.1-2.3,0
		C66.7,65.9,65,65.1,64,62.8z"/>
	<path class="st3" d="M142.7,34.6c-0.8-0.5-1.2-1-0.9-2c0.3-1.4,0.3-2.8,0.4-4.2c0.1-1.4,0.8-2.2,2.3-2.2c1.4,0,2.9-0.1,4.3-0.1
		c1.6,0,3.1,0.1,4.7,0.1c2.7,0,3.7,0.9,3.6,3.6c0,0.6,0,1.3,0,1.9c-0.3,1.1,0.5,2.4-0.8,3.2c-0.1-0.1-0.2-0.1-0.3-0.1
		C151.6,34.6,147.1,34.6,142.7,34.6z"/>
	<path class="st1" d="M165.8,54c2.7,0,5.4-0.1,8.1-0.1c0.9,0.6,2.2,0.9,2,2.4c-1.5-1.6-3.5-1.6-5.5-1.6c-33.8,0-67.7,0-101.5,0
		c-1.6,0-3,0.8-4.6,0.8c0.2-0.9,1.1-1.1,1.7-1.5c2.4,0,4.7,0,7.1,0c2.2,0,4.5,0,6.7,0c0,0,0.1,0.1,0.1,0.1c0.6,0.6,1.4,0.3,2.1,0.3
		c27.3,0,54.5,0,81.8,0C164.5,54.3,165.2,54.5,165.8,54z"/>
	<path class="st1" d="M169,65.6c0,0.6-0.1,1.3-0.1,1.9c-0.9,3.1-0.9,3.1-4.5,3.1c-4.7,0-9.3,0-14,0c-4-0.9-8,0.2-12-0.2
		c-0.9-0.1-1.8-0.2-2.7-0.2c-2.5,0.1-5-0.1-7.5,0.1c-1.4,0.2-3.1-1-4.3,0.6c-0.4,0-0.8,0-1.2-0.1c-0.4-0.5-0.9-1.1-1.2,0.1
		c-0.3,0-0.5,0.1-0.8,0.1c-3.4-0.7-6.8-0.8-10.3-0.5c-2,0-3.9-0.1-5.9,0c-1.3,0.1-2.7-0.4-4,0.3c-0.3,0-0.5,0-0.8,0.1
		c-0.1,0-0.3,0-0.4-0.1c-1.2-0.7-2.2-0.1-3.2,0.6c-1.8-0.8-3.7-0.4-5.6-0.5c-1.2-0.1-1.6,0.5-1.6,1.6c0.1,3.7-0.2,7.4,0.2,11.1
		c0.6,4.7,0.8,9.4,1.4,14.1c0.5,3.7,0.6,7.4,0.9,11.1c0.4,5.2,0.9,10.4,1.4,15.6c0.1,0.7,0.3,1.3-0.7,1.5c-6.8-3.4-12.6-8-17.3-14
		c0.7-3.7-0.9-7.1-0.9-10.8c0-4.7-0.6-9.4-1.3-14c-0.5-3.1-0.4-6.4-0.7-9.5c-0.4-4-1-8-1.1-12C103.7,65.6,136.4,65.6,169,65.6z"/>
	<path class="st0" d="M106,122.5c-2.5-2.8-4.5-5.8-5.6-9.4c-0.4-1.3,0.8-2.6,1.5-3.6c1.1-1.5,0.7-2.4-0.9-3.1
		c-0.5-0.2-1.1-0.4-1.4-1.3c3.4,0.1,6.6-0.7,9.9-0.8c0.5,0,0.9,0.1,1.1,0.6c1.5,2.8,3,5.7,4.5,8.5c0.1,0.1,0,0.4-0.1,0.7
		c-0.9-0.5-2-0.6-2.2-1.8c0,0-0.1,0-0.2,0c-0.1,0-0.1,0.1-0.1,0.1c-1-0.5-1.7-0.5-2.2,0.7c-0.4,1-0.9,1.9-1,3
		C107.4,117.8,106.6,120,106,122.5z"/>
	<path class="st0" d="M116.3,90.5c3.5-0.4,7.1-0.1,10.6-0.2c0.8,0,1.4,0.4,1.8,1c0.2,0.3,0.4,0.7,0.6,1c2.1,3.1,2.1,3.1,5.4,1.4
		c0.5,0.4,0.3,0.8,0.1,1.2c-1.2,2.5-2.5,5-3.7,7.6c-0.3,0.7-0.7,1-1.4,0.9c-2.9-0.2-5.8-0.3-8.6-0.5c-0.3,0-0.7-0.2-0.8-0.4
		c-0.2-0.5,0.3-0.6,0.6-0.7c0.5-0.2,0.9-0.5,1.3-0.8c1-0.6,1.2-1.3,0.4-2.2c-0.7-0.8-0.9-1.8-1.8-2.4
		C119.8,94.1,118.5,92,116.3,90.5z"/>
	<path class="st0" d="M139.4,116.2c-0.9,2.9-2.6,5.4-4.2,7.9c-1,1.6-2.8,1.6-4.5,1.6c-1.5,0.1-3.1-0.3-2.9,2.1
		c0.1,0.9-0.7,1.1-1.4,0.3c-1.6-2.1-3.1-4.2-4.7-6.3c-0.3-0.4-0.3-0.9,0-1.3c1.9-2.7,3.5-5.5,5.7-8.1c0.2,0.4,0.3,0.6,0.4,0.8
		c0.2,3.5,0.2,3.5,3.8,3.3c0.3,0,0.6-0.1,1-0.1C134.9,116.9,137.2,116,139.4,116.2z"/>
	<path class="st4" d="M99.9,71c0.3,0,0.5,0,0.8-0.1c1.2,0.2,1.2,1,1.3,2c0.1,2.7-0.3,5.5,0.3,8.2c1.4,0.5,2.9,0.1,4.3,0.3
		c0.2,0.5,0.5,1,0.8,0.2c0.9-2.7,1.9-5.4,2.5-8.3c0.1-0.2,0.3-0.4,0.4-0.7c0.3-1.1,0.9-1.8,2.2-1.8c1.3,0.1,1.7,1,2.1,2
		c0.9,2.8,1.7,5.5,2.6,8.3c0.3,0.9,0.8,1.9-0.6,2.4c-1.4,0.5-1.7-0.5-1.9-1.5c-0.2-0.9-0.7-1.2-1.6-0.9c-0.5,0-1,0-1.6,0
		c-0.6-0.2-0.8,0.1-0.9,0.6c-0.5,1.6-1.4,2.6-3.3,1.5c-0.1-0.1-0.4,0.2-0.6,0.3c-2.3,0.2-4.6,0.2-7,0c-0.1-0.1-0.2-0.2-0.3-0.3
		c0-3.3,0-6.7,0-10C99.2,72.4,99.3,71.6,99.9,71z M112.5,75.1c-0.1,0-0.3,0-0.4,0c-0.2,0.8-0.5,1.7-0.7,2.5
		c-0.1,0.4-0.5,1.1,0.2,1.3c0.4,0.2,1.1,0.1,1.5,0c0.7-0.3,0.3-0.9,0.2-1.3C113,76.7,112.7,75.9,112.5,75.1z"/>
	<path class="st5" d="M139.4,116.2c-2.3-0.2-4.5,0.6-6.8,0.2c-1.4-2.4-2.7-4.8-4.2-7.2c-0.6-0.9-0.3-1.4,0.5-1.8
		c2.2-1.2,4.3-2.4,6.4-3.7c0.7-0.4,1.3-0.5,1.7,0.4c1.1,2.1,2.3,4,3.3,6.1C141.5,112.5,141.4,114.5,139.4,116.2z"/>
	<path class="st5" d="M116.3,90.5c2.2,1.5,3.5,3.7,4.5,6c-1.6,2.1-2.7,4.4-4,6.6c-0.6,1-1.1,1.4-2.3,0.7c-2-1.3-4.1-2.3-6.1-3.5
		c-0.8-0.4-1.2-0.8-0.6-1.8c1.4-2.2,2.6-4.6,4.4-6.6C113.4,90.8,114.6,90.1,116.3,90.5z"/>
	<path class="st5" d="M106,122.5c0.5-2.4,1.4-4.7,3.3-6.4c2.2,0.4,4.4,0.1,6.6,0.1c2.6,0,2.6,0,2.6,2.4c0,1,0,2,0,3.1
		c0,4.2,0,4.2-4.2,4.2c-0.5,0-0.9,0-1.4,0.1c-1.5-0.2-3,0-4.4-0.7C107.2,124.8,106.2,124,106,122.5z"/>
	<path class="st1" d="M112.9,81.2c0.9-0.2,1.4,0,1.6,0.9c0.2,1,0.5,2,1.9,1.5c1.4-0.5,0.9-1.5,0.6-2.4c-0.9-2.8-1.7-5.5-2.6-8.3
		c-0.3-1-0.7-1.9-2.1-2c-1.3-0.1-1.9,0.7-2.2,1.8c-0.1,0.2-0.2,0.4-0.4,0.7c-0.1-1-0.3-2.1,0.7-2.8c3.4-0.3,6.9-0.2,10.3,0.5
		c-3.7,2.3-3.5,5.2,0.4,7.2c0.5,0.2,0.9,0.4,1.4,0.7c0.7,0.4,1.5,0.8,1.1,1.8c-0.4,0.9-1.4,0.9-2.3,0.6c-0.4-0.1-0.8-0.4-1.2-0.6
		c-0.6-0.4-1.3-0.8-1.9,0c-0.6,0.8-0.3,1.6,0.4,2.2c1.6,1.3,5.2,1.3,6.6,0c1.5-1.3,1.5-3.6,0.1-5.8c1.5,0.4,2.3,2.2,1.9,3.6
		c-0.9,3-3,4.1-5.9,4.1c-1,0-1.7,1-2.8,0.6c-0.3-1,1.4-0.4,1-1.2c-0.5-0.9-1.4-0.3-2.1-0.2c-0.4,0-0.9-0.1-1.1,0.1
		c-1.3,1.2-1.8,0.4-2.3-0.8C113.8,82.7,112.9,82.2,112.9,81.2z"/>
	<path class="st4" d="M89.3,83.7c-0.4-3.7-0.1-7.4-0.2-11.1c0-1.1,0.4-1.7,1.6-1.6c1.9,0.1,3.8-0.3,5.6,0.5c1.5,1.3,2.2,3.4,1.5,5.3
		c-0.7,1.9-2.2,2.5-4.1,2.4C92,79,91.9,79.9,92,81.2C92,83.8,91.9,83.8,89.3,83.7z M92,75.2c0.2,0.6-0.6,1.9,1.1,1.9
		c1.3,0,2.1-0.5,2.1-1.9c0-1.3-0.8-1.8-1.9-1.9C91.8,73.2,91.9,74.1,92,75.2z"/>
	<path class="st4" d="M125.5,77.2c1.4,2.2,1.4,4.4-0.1,5.8c-1.5,1.3-5,1.3-6.6,0c-0.8-0.6-1-1.3-0.4-2.2c0.6-0.8,1.2-0.4,1.9,0
		c0.4,0.2,0.8,0.5,1.2,0.6c0.9,0.3,1.8,0.2,2.3-0.6c0.5-0.9-0.4-1.4-1.1-1.8c-0.4-0.3-0.9-0.5-1.4-0.7c-3.9-2-4-4.9-0.4-7.2
		c0.3,0,0.5-0.1,0.8-0.1c0.4,0,0.8-0.1,1.2-0.1c0.4,0,0.8,0,1.2,0.1c2.7,0.9,2.8,1.3,1.4,3.1c-1-0.3-1.9-0.8-3-0.7
		c-0.5,0.1-1,0.2-1.2,0.8c-0.2,0.6,0.3,0.9,0.7,1.2C123.1,75.9,124.3,76.5,125.5,77.2z"/>
	<path class="st4" d="M150.7,81.8c-1.8,3.2-7.7,2.8-8.5-0.8c0-2-0.1-4,0-6c0.1-2.7,1.9-4.2,4.7-4c2.9,0.2,4.1,1.6,3.9,4.5
		c0,0,0,0,0,0c-1,0.1-2.3,0.7-2.7-1c-0.2-0.8-0.8-1.3-1.8-1.1c-0.9,0.2-1.3,0.8-1.3,1.7c0,1.4,0,2.8,0,4.2c0,1,0.2,1.8,1.3,2.1
		c1.1,0.2,1.7-0.4,1.9-1.4c0.2-0.9,0.9-1.1,1.7-1c1,0.1,1,0.8,1,1.6C150.8,81,150.8,81.4,150.7,81.8z"/>
	<path class="st1" d="M150.7,75.6c0.2-2.9-1-4.3-3.9-4.5c-2.7-0.2-4.6,1.4-4.7,4c-0.1,2,0,4,0,6c-0.7,0.1-0.9-0.8-1.6-0.8
		c-0.1-2.6-0.1-5.1-0.2-7.7c0-0.3-0.1-0.5-0.1-0.8c0-0.4-0.2-0.4-0.5-0.4c-2.5-0.5-2,1.3-2,2.7c-0.5,3.1-0.1,6.2-0.2,9.2
		c-0.7,0.1-0.9-0.3-0.9-0.9c0-2-0.1-4.1,0-6.1c0.1-1.7-0.4-2.5-2.3-2.2c-0.3,0.1-0.6,0-1,0c0.2-1.1,1-0.6,1.5-0.6
		c0.9,0,1.6-0.3,1.6-1.3c0-1.1-0.8-1.2-1.6-1.2c-2,0-3.9,0-5.9,0c-1.7,0-2.1,0.7-1.7,2.2c-0.8,0-1.1,1-1.9,0.8
		c1.4-1.8,1.2-2.2-1.4-3.1c1.2-1.6,2.9-0.4,4.3-0.6c2.5-0.3,5,0,7.5-0.1c0.9,0,1.8,0.1,2.7,0.2c4,0.4,8-0.7,12,0.2
		c-0.1,1.3,1.1,1.9,1.4,3C152.2,75,151.8,75.3,150.7,75.6z"/>
	<path class="st4" d="M127.3,73.2c-0.4-1.4,0-2.2,1.7-2.2c2,0,3.9,0,5.9,0c0.9,0,1.6,0.1,1.6,1.2c0,1-0.6,1.3-1.6,1.3
		c-0.6,0-1.4-0.4-1.5,0.6c0,2.6-0.1,5.2-0.1,7.9c0,1-0.2,1.8-1.5,1.8c-1.2,0-1.5-0.7-1.5-1.7c0-2.1-0.1-4.2,0-6.3
		c0.1-1.4-0.2-2.4-1.9-2.2C128.1,73.5,127.7,73.3,127.3,73.2z"/>
	<path class="st1" d="M150.7,81.8c0-0.4,0.1-0.8,0.1-1.1c0-0.7,0-1.4-1-1.6c-0.8-0.1-1.4,0.1-1.7,1c-0.2,1-0.8,1.6-1.9,1.4
		c-1.1-0.2-1.3-1.1-1.3-2.1c0-1.4,0-2.8,0-4.2c0-0.9,0.4-1.5,1.3-1.7c0.9-0.2,1.5,0.3,1.8,1.1c0.4,1.6,1.7,1,2.7,1
		c-0.3,1.5-0.4,2.8,1.1,4C152.4,80,151.9,81.4,150.7,81.8z"/>
	<path class="st5" d="M137.7,74c0.1-1.4-0.5-3.1,2-2.7c0.2,0.1,0.3,0.3,0.5,0.4c0,0.3,0.1,0.5,0.1,0.8c-0.4,3.3-0.4,6.7,0,10
		c-0.6,1.3-1.4,1.5-2.6,0.7C137.8,80.2,137.8,77.1,137.7,74z"/>
	<path class="st1" d="M112.9,126c0.5,0,0.9-0.1,1.4-0.1c4.2,0,4.2,0,4.2-4.2c0-1,0-2,0-3.1c0-2.4,0-2.4-2.6-2.4
		c-2.2,0-4.4,0.2-6.6-0.1c0.2-1.1,0.6-2,1-3c0.5-1.2,1.2-1.3,2.2-0.7c-0.4,0.5-1.7,0.7-1,1.7c0.5,0.7,0.4,2.3,2.2,1.7
		c1-0.3,2.3,0.1,3.3-0.5c0.5-0.3,1.1-0.2,1.4,0.4c0.7,1.4,1.9,2.6,0.9,4.4c-0.4,0.7-0.4,1.6-0.1,2c0.8,1.2-0.2,2.3-0.1,3.4
		c0,0.3-0.3,0.7-0.6,0.9C117.8,127,113.9,126.7,112.9,126z"/>
	<path class="st1" d="M99.9,71c-0.7,0.6-0.7,1.5-0.7,2.3c0,3.3,0,6.7,0,10c-1-4-0.6-8.1-0.2-12.2c0-0.1,0.3-0.1,0.5-0.2
		C99.7,70.9,99.8,71,99.9,71z"/>
	<path class="st1" d="M140.4,82.5c-0.4-3.3-0.4-6.7,0-10c0.1,2.6,0.1,5.1,0.2,7.7C140.5,81,140.4,81.8,140.4,82.5z"/>
	<path class="st1" d="M137.7,74c0,3.1,0,6.1,0.1,9.2c-0.1,0-0.2,0.1-0.3,0C137.6,80.2,137.2,77.1,137.7,74z"/>
	<path class="st1" d="M99.6,83.6c2.3,0.2,4.6,0.2,7,0C104.2,84.4,101.9,84.5,99.6,83.6z"/>
	<path class="st1" d="M110.5,81.7c0.1-0.5,0.4-0.8,0.9-0.6C111.3,81.7,110.9,81.8,110.5,81.7z"/>
	<path class="st6" d="M163.8,46.3c1.3,2.4,1.9,4.9,1.8,7.6c-1.3,0-2.5,0-3.8,0c0-1,0-2,0-3.1c-0.1-1.9-1.3-3.1-3.2-3
		c-1.9,0-3,1.1-3.1,3.1c0,1,0.2,2.1-0.4,3c-6.2,0-12.4,0-18.6,0c-1.8-2.1-3.1-2.1-5.5,0c-4.6,0-9.2,0-13.8,0c-0.3-2.4,1.2-4.1,2.2-6
		c0.3-0.7,0.6-1.2,0.6-2c0-2.3,0.5-2.7,2.9-2.8c2.2-0.1,4.4-0.4,6.6-0.8c0.1,2.2,1.1,3.8,3.2,4.7c3.1,0.7,5.3,2.5,7,5.1
		c0.3,0.5,0.4,1.5,1.2,1.3c0.8-0.2,0.5-1.1,0.5-1.7c0.1-3.5,0.9-6.7,3.1-9.5c0.8-1,1.4-2.1,1.6-3.4c0.2-1.3,0.9-2,2.4-2
		c2.5,0.1,5,0,7.4,0.4c0.2,1.6-0.1,3.4,1.7,4.2c2.2,1.1,4.1,2.6,5.9,4.3c0,0,0,0,0,0C163.6,46,163.7,46.1,163.8,46.3z"/>
	<path class="st6" d="M109,33.8c-0.7,2-0.2,3.5,1.2,5.1c1.8,1.9,3.5,4.1,3.5,6.9c0.3,2.4-0.2,4.3-2.4,5.7c-0.8,0.5-1.3,1.4-1.6,2.4
		c-0.4,0-0.8,0-1.2,0c0-2,1.3-3.6,1.6-5.5c0.4-2.2-0.1-3.9-1.6-4.4c-1.7-0.6-3.8,0.4-4.5,2.4c-0.9,2.5-1.5,5-2.2,7.5
		c-4.9,0-9.7,0-14.6,0c0.1-3.1,1.5-5.9,2.5-8.9c1.5-4.4,3.3-8.7,7.8-11c0.3-0.1,0.5-0.4,0.7-0.6c1.1-0.8,0.9-3.1,3-2.8
		c1.5,0.2,2.9,0.8,4.3,1.3c0.7,0.3,1.4,0.7,2.2,0.8C108.3,32.8,108.9,33.1,109,33.8z"/>
	<path class="st7" d="M109,33.8c-0.1-0.7-0.7-1-1.2-1.1c-0.8-0.1-1.5-0.5-2.2-0.8c-1.4-0.5-2.8-1.1-4.3-1.3c-2.1-0.3-1.8,2-3,2.8
		c-0.3,0.2-0.5,0.5-0.7,0.6c-4.6,2.3-6.4,6.6-7.8,11c-1,2.9-2.4,5.7-2.5,8.9c-2.5,0-5,0.1-7.4,0.1c0,0-0.1-0.1-0.1-0.1
		c-0.1-1.1-0.3-2.1-0.4-3.2c-0.3-3.5,1.4-6.4,2.4-9.6c1.6-4.7,5-7.4,10-8.3c3.7-0.7,5-2.3,5.4-6.1c4.4,1,8.6,2.8,12.9,4.2
		C109.8,31.9,109.7,32.9,109,33.8z"/>
	<path class="st7" d="M155.9,37.3c-2.5-0.4-4.9-0.4-7.4-0.4c-1.5,0-2.2,0.7-2.4,2c-0.2,1.3-0.8,2.3-1.6,3.4c-2.2,2.8-3.1,6-3.1,9.5
		c0,0.6,0.4,1.5-0.5,1.7c-0.8,0.2-0.9-0.8-1.2-1.3c-1.7-2.6-3.9-4.4-7-5.1c1,0.2,1.6-0.4,2-1.2c1.1-1.8,2.6-3.1,4.5-3.8
		c3.3-1.1,3.5-3.8,3.5-6.6c0-0.3,0-0.6-0.1-0.9c4.4,0,8.9,0.1,13.3,0.1C156,35.6,156,36.4,155.9,37.3z"/>
	<path class="st7" d="M109.8,53.9c0.3-1,0.8-1.9,1.6-2.4c2.2-1.4,2.7-3.4,2.4-5.7c0.6,1,0.1,2.1,0.4,3.3c3.3-2,1.6-4.9,1.7-7.5
		c1.3-0.7,2.8-0.3,4.1-0.8c3.2,0.2,6.2-1.1,9.4-0.7c-0.2,0.8,0.7,1.5,0,2.3c-2.2,0.4-4.3,0.7-6.6,0.8c-2.4,0.1-2.8,0.5-2.9,2.8
		c0,0.7-0.2,1.3-0.6,2c-1,1.9-2.5,3.7-2.2,6C114.8,53.9,112.3,53.9,109.8,53.9z"/>
	<path class="st2" d="M129.5,40.1c-3.2-0.4-6.3,0.9-9.4,0.7c-1.3-1.4-1-3.2-1.1-4.9c-0.1-1.2-0.4-2.7,1.5-2.9
		c-0.1-0.2-0.3-0.4-0.4-0.6c1.6-0.3,3.1-0.3,4.7-0.7c2.8-0.8,5.2,1,4.8,3.5c-0.1,0.8,0.4,1.6,0.6,2.3
		C130.3,38.4,130.7,39.5,129.5,40.1z"/>
	<path class="st1" d="M120.1,32.4c0.1,0.2,0.3,0.4,0.4,0.6c-1.9,0.3-1.7,1.7-1.5,2.9c0.2,1.6-0.1,3.4,1.1,4.9
		c-1.3,0.5-2.8,0.1-4.1,0.8c-0.9-0.3-1.3-1-1.3-1.9c0-1.1,0-2.3-0.2-3.4c-0.3-2,0.4-3.1,2.6-3.5C118,32.7,119,32.3,120.1,32.4z"/>
	<path class="st1" d="M109.8,53.9c2.5,0,5,0,7.5,0c4.6,0,9.2,0,13.8,0c1.8,0,3.7,0,5.5,0c6.2,0,12.4,0,18.6,0c2.2,0,4.4,0,6.7,0
		c1.3,0,2.5,0,3.8,0c0.1,0,0.2,0.1,0.2,0.1c-0.6,0.5-1.4,0.3-2.1,0.3c-27.3,0-54.5,0-81.8,0c-0.7,0-1.5,0.3-2.1-0.3
		c2.5,0,5-0.1,7.4-0.1c4.9,0,9.7,0,14.6,0c2.2,0,4.5,0,6.7,0C109,53.9,109.4,53.9,109.8,53.9z"/>
	<path class="st8" d="M163.8,46.3c-0.1-0.2-0.2-0.3-0.4-0.5C163.6,46,163.7,46.1,163.8,46.3z"/>
	<path class="st1" d="M110.6,70.6c-1.1,0.7-0.8,1.8-0.7,2.8c-0.5,2.8-1.6,5.5-2.5,8.3c-0.3,0.9-0.6,0.3-0.8-0.2
		c-0.1-0.7,0.4-1.6-0.6-2.4c-0.2,1.1-0.3,2.2-1.7,1.9c-1.2-0.3-1.7-1-1.7-2.2c0-1.4,0-2.8,0-4.3c-0.1,0-0.3,0-0.4,0
		c0,2.2,0,4.5,0,6.7c-0.6-2.7-0.1-5.5-0.3-8.2c0-1,0-1.8-1.3-2c1.3-0.7,2.7-0.3,4-0.3C106.6,70.5,108.6,70.6,110.6,70.6z"/>
	<path class="st1" d="M122.8,70.9c-0.4,0-0.8,0.1-1.2,0.1C121.9,69.8,122.4,70.4,122.8,70.9z"/>
	<path class="st1" d="M112.5,75.1c0.3,0.8,0.5,1.7,0.7,2.5c0.1,0.4,0.6,1-0.2,1.3c-0.5,0.2-1.1,0.2-1.5,0c-0.7-0.3-0.3-0.9-0.2-1.3
		c0.2-0.9,0.5-1.7,0.7-2.5C112.2,75.1,112.3,75.1,112.5,75.1z"/>
	<path class="st1" d="M102.2,81.2c0-2.2,0-4.5,0-6.7c0.1,0,0.3,0,0.4,0c0,1.4,0,2.9,0,4.3c0,1.2,0.5,2,1.7,2.2
		c1.4,0.3,1.5-0.8,1.7-1.9c0.9,0.8,0.5,1.7,0.6,2.4C105.1,81.3,103.7,81.7,102.2,81.2z"/>
	<path class="st1" d="M92,75.2c-0.1-1.1-0.1-2,1.3-1.9c1.2,0.1,2,0.6,1.9,1.9c0,1.4-0.8,1.9-2.1,1.9C91.3,77.1,92.2,75.8,92,75.2z"
		/>
	<path class="st7" d="M140.3,71.8c-0.2-0.1-0.3-0.3-0.5-0.4C140.1,71.3,140.3,71.4,140.3,71.8z"/>
	<path class="st9" d="M161.8,53.9c-2.2,0-4.4,0-6.7,0c0.6-0.9,0.3-2,0.4-3c0.1-2,1.2-3.1,3.1-3.1c1.9,0,3.1,1.2,3.2,3
		C161.9,51.8,161.8,52.9,161.8,53.9z"/>
	<path class="st5" d="M136.6,53.9c-1.8,0-3.7,0-5.5,0C133.5,51.8,134.8,51.8,136.6,53.9z"/>
	<path class="st9" d="M108.6,53.9c-2.2,0-4.5,0-6.7,0c0.7-2.5,1.3-5,2.2-7.5c0.7-2,2.8-3,4.5-2.4c1.5,0.5,2,2.3,1.6,4.4
		C109.9,50.3,108.6,51.9,108.6,53.9z"/>
	<path class="st3" d="M96.9,28c-0.6-0.7-0.8-1.3-0.3-2.2c0.7-1.2,1-2.6,1.5-4c0.5-1.3,1.4-2,2.9-1.5c1.4,0.4,2.8,0.7,4.2,1.1
		c1.5,0.4,3,0.9,4.5,1.3c2.6,0.7,3.3,1.9,2.5,4.4c-0.2,0.6-0.3,1.2-0.5,1.9c-0.6,0.9-0.1,2.4-1.7,2.8c-0.1-0.1-0.2-0.1-0.3-0.2
		C105.5,30.4,101.2,29.2,96.9,28z"/>
</g>
</svg>
